<svg xmlns="http://www.w3.org/2000/svg" xmlns:xlink="http://www.w3.org/1999/xlink" width="120" zoomAndPan="magnify" viewBox="0 0 90 48.75" height="65" preserveAspectRatio="xMidYMid meet" version="1.0"><defs><g/><clipPath id="id1"><path d="M 3.765625 4.851562 L 45.128906 4.851562 L 45.128906 43.03125 L 3.765625 43.03125 Z M 3.765625 4.851562 " clip-rule="nonzero"/></clipPath></defs><path fill="rgb(7.058716%, 13.328552%, 61.569214%)" d="M 34.367188 20.480469 C 33.710938 20.480469 33.179688 20.996094 33.179688 21.628906 C 33.179688 22.261719 33.710938 22.773438 34.367188 22.773438 C 35.019531 22.773438 35.550781 22.261719 35.550781 21.628906 C 35.550781 20.996094 35.019531 20.480469 34.367188 20.480469 " fill-opacity="1" fill-rule="nonzero"/><path fill="rgb(7.058716%, 13.328552%, 61.569214%)" d="M 21.996094 31.164062 C 21.339844 31.164062 20.808594 31.679688 20.808594 32.3125 C 20.808594 32.945312 21.339844 33.457031 21.996094 33.457031 C 22.648438 33.457031 23.179688 32.945312 23.179688 32.3125 C 23.179688 31.679688 22.648438 31.164062 21.996094 31.164062 " fill-opacity="1" fill-rule="nonzero"/><g clip-path="url(#id1)"><path fill="rgb(7.058716%, 13.328552%, 61.569214%)" d="M 34.367188 24.082031 C 33.003906 24.082031 31.890625 23.046875 31.828125 21.746094 C 30.535156 21.273438 28.699219 20.816406 25.800781 20.816406 C 20.1875 20.816406 16.96875 23.847656 16.96875 29.128906 C 16.96875 34.335938 20.160156 37.570312 25.296875 37.570312 C 26.171875 37.570312 26.851562 37.515625 27.328125 37.445312 L 27.328125 33.597656 L 24.160156 33.597656 C 23.710938 34.300781 22.910156 34.769531 21.996094 34.769531 C 20.589844 34.769531 19.453125 33.667969 19.453125 32.3125 C 19.453125 30.957031 20.589844 29.855469 21.996094 29.855469 C 22.839844 29.855469 23.589844 30.253906 24.050781 30.871094 L 30.15625 30.871094 L 30.15625 39.335938 L 29.375 39.710938 C 28.316406 40.222656 26.363281 40.300781 25.296875 40.300781 C 22.046875 40.300781 19.269531 39.265625 17.265625 37.304688 C 15.222656 35.304688 14.144531 32.476562 14.144531 29.128906 C 14.144531 25.664062 15.316406 22.800781 17.539062 20.851562 C 19.597656 19.042969 22.453125 18.089844 25.800781 18.089844 C 29.519531 18.089844 31.773438 18.761719 33.328125 19.386719 C 33.644531 19.25 33.996094 19.171875 34.367188 19.171875 C 35.769531 19.171875 36.90625 20.269531 36.90625 21.628906 C 36.90625 22.984375 35.769531 24.082031 34.367188 24.082031 Z M 24.449219 4.851562 C 13.023438 4.851562 3.765625 13.796875 3.765625 24.832031 C 3.765625 29.890625 5.714844 34.511719 8.925781 38.035156 C 8.570312 37.421875 8.257812 36.773438 7.984375 36.09375 C 7.167969 34.0625 6.769531 31.832031 6.792969 29.472656 C 6.816406 24.300781 8.730469 19.960938 12.328125 16.917969 C 14.035156 15.472656 16.078125 14.359375 18.40625 13.609375 C 20.691406 12.871094 23.210938 12.496094 25.894531 12.496094 C 30.128906 12.496094 33.398438 13.308594 35.0625 14.078125 C 35.382812 13.9375 35.742188 13.859375 36.117188 13.859375 C 37.523438 13.859375 38.660156 14.957031 38.660156 16.3125 C 38.660156 17.671875 37.523438 18.769531 36.117188 18.769531 C 34.753906 18.769531 33.640625 17.730469 33.578125 16.425781 C 32.164062 15.84375 29.429688 15.226562 25.894531 15.226562 C 16.046875 15.226562 9.65625 20.824219 9.617188 29.488281 L 9.617188 29.496094 C 9.574219 33.535156 10.964844 37.039062 13.535156 39.359375 L 13.550781 39.375 C 16.183594 41.835938 19.980469 43.03125 25.15625 43.03125 C 28.367188 43.03125 31.707031 42.390625 34.082031 41.710938 L 34.082031 28.316406 L 27.878906 28.316406 C 27.4375 29.042969 26.621094 29.527344 25.6875 29.527344 C 24.28125 29.527344 23.144531 28.429688 23.144531 27.070312 C 23.144531 25.714844 24.28125 24.617188 25.6875 24.617188 C 26.515625 24.617188 27.25 24.996094 27.710938 25.589844 L 36.90625 25.589844 L 36.90625 40.777344 C 41.902344 37.128906 45.128906 31.34375 45.128906 24.832031 C 45.128906 13.796875 35.871094 4.851562 24.449219 4.851562 " fill-opacity="1" fill-rule="nonzero"/></g><path fill="rgb(7.058716%, 13.328552%, 61.569214%)" d="M 37.304688 16.3125 C 37.304688 15.679688 36.773438 15.167969 36.117188 15.167969 C 35.460938 15.167969 34.929688 15.679688 34.929688 16.3125 C 34.929688 16.945312 35.460938 17.460938 36.117188 17.460938 C 36.773438 17.460938 37.304688 16.945312 37.304688 16.3125 " fill-opacity="1" fill-rule="nonzero"/><path fill="rgb(7.058716%, 13.328552%, 61.569214%)" d="M 24.5 27.070312 C 24.5 27.707031 25.03125 28.21875 25.6875 28.21875 C 26.34375 28.21875 26.875 27.707031 26.875 27.070312 C 26.875 26.4375 26.34375 25.925781 25.6875 25.925781 C 25.03125 25.925781 24.5 26.4375 24.5 27.070312 " fill-opacity="1" fill-rule="nonzero"/><g fill="rgb(0%, 0%, 0%)" fill-opacity="1"><g transform="translate(47.778546, 28.838697)"><g><path d="M 2.578125 0 L 0.71875 0 L 0.71875 -7.265625 L 2.578125 -7.265625 Z M 2.578125 0 "/></g></g></g><g fill="rgb(0%, 0%, 0%)" fill-opacity="1"><g transform="translate(52.665728, 28.838697)"><g><path d="M 3.515625 -7.34375 C 4.597656 -7.34375 5.550781 -7.070312 6.375 -6.53125 L 5.6875 -5.09375 C 5.300781 -5.3125 4.890625 -5.488281 4.453125 -5.625 C 4.023438 -5.769531 3.660156 -5.84375 3.359375 -5.84375 C 2.828125 -5.84375 2.5625 -5.671875 2.5625 -5.328125 C 2.5625 -5.097656 2.691406 -4.910156 2.953125 -4.765625 C 3.210938 -4.628906 3.53125 -4.507812 3.90625 -4.40625 C 4.289062 -4.3125 4.671875 -4.191406 5.046875 -4.046875 C 5.421875 -3.910156 5.738281 -3.679688 6 -3.359375 C 6.269531 -3.046875 6.40625 -2.644531 6.40625 -2.15625 C 6.40625 -1.457031 6.128906 -0.910156 5.578125 -0.515625 C 5.035156 -0.128906 4.34375 0.0625 3.5 0.0625 C 2.894531 0.0625 2.296875 -0.0390625 1.703125 -0.25 C 1.117188 -0.457031 0.609375 -0.738281 0.171875 -1.09375 L 0.890625 -2.515625 C 1.253906 -2.203125 1.6875 -1.941406 2.1875 -1.734375 C 2.6875 -1.535156 3.128906 -1.4375 3.515625 -1.4375 C 3.816406 -1.4375 4.050781 -1.488281 4.21875 -1.59375 C 4.382812 -1.695312 4.46875 -1.851562 4.46875 -2.0625 C 4.46875 -2.257812 4.367188 -2.425781 4.171875 -2.5625 C 3.984375 -2.695312 3.75 -2.796875 3.46875 -2.859375 C 3.1875 -2.929688 2.878906 -3.019531 2.546875 -3.125 C 2.210938 -3.238281 1.898438 -3.359375 1.609375 -3.484375 C 1.328125 -3.617188 1.09375 -3.828125 0.90625 -4.109375 C 0.71875 -4.398438 0.625 -4.75 0.625 -5.15625 C 0.625 -5.820312 0.882812 -6.351562 1.40625 -6.75 C 1.9375 -7.144531 2.640625 -7.34375 3.515625 -7.34375 Z M 3.515625 -7.34375 "/></g></g></g><g fill="rgb(0%, 0%, 0%)" fill-opacity="1"><g transform="translate(60.934483, 28.838697)"><g><path d="M 7.421875 0 L 5.578125 0 L 5.578125 -2.828125 L 2.578125 -2.828125 L 2.578125 0 L 0.71875 0 L 0.71875 -7.265625 L 2.578125 -7.265625 L 2.578125 -4.28125 L 5.578125 -4.28125 L 5.578125 -7.265625 L 7.421875 -7.265625 Z M 7.421875 0 "/></g></g></g><g fill="rgb(0%, 0%, 0%)" fill-opacity="1"><g transform="translate(70.676192, 28.838697)"><g><path d="M 7.265625 -7.265625 L 7.265625 -3.046875 C 7.265625 -2.085938 6.96875 -1.328125 6.375 -0.765625 C 5.78125 -0.203125 4.972656 0.078125 3.953125 0.078125 C 2.929688 0.078125 2.117188 -0.203125 1.515625 -0.765625 C 0.910156 -1.328125 0.609375 -2.085938 0.609375 -3.046875 L 0.609375 -7.265625 L 2.453125 -7.265625 L 2.453125 -3.046875 C 2.453125 -2.566406 2.585938 -2.179688 2.859375 -1.890625 C 3.140625 -1.609375 3.507812 -1.46875 3.96875 -1.46875 C 4.40625 -1.46875 4.753906 -1.609375 5.015625 -1.890625 C 5.285156 -2.171875 5.421875 -2.554688 5.421875 -3.046875 L 5.421875 -7.265625 Z M 7.265625 -7.265625 "/></g></g></g><g fill="rgb(0%, 0%, 0%)" fill-opacity="1"><g transform="translate(80.127459, 28.838697)"><g><path d="M 0.71875 -7.265625 L 4.15625 -7.265625 C 4.976562 -7.265625 5.628906 -7.097656 6.109375 -6.765625 C 6.585938 -6.441406 6.828125 -6.003906 6.828125 -5.453125 C 6.828125 -5.066406 6.710938 -4.726562 6.484375 -4.4375 C 6.265625 -4.15625 5.960938 -3.957031 5.578125 -3.84375 C 6.035156 -3.757812 6.398438 -3.550781 6.671875 -3.21875 C 6.941406 -2.882812 7.078125 -2.484375 7.078125 -2.015625 C 7.078125 -1.398438 6.828125 -0.910156 6.328125 -0.546875 C 5.828125 -0.179688 5.144531 0 4.28125 0 L 0.71875 0 Z M 2.5625 -5.84375 L 2.5625 -4.359375 L 4.0625 -4.359375 C 4.332031 -4.359375 4.546875 -4.425781 4.703125 -4.5625 C 4.859375 -4.695312 4.9375 -4.878906 4.9375 -5.109375 C 4.9375 -5.335938 4.859375 -5.515625 4.703125 -5.640625 C 4.546875 -5.773438 4.332031 -5.84375 4.0625 -5.84375 Z M 2.5625 -3.03125 L 2.5625 -1.421875 L 4.0625 -1.421875 C 4.40625 -1.421875 4.675781 -1.492188 4.875 -1.640625 C 5.070312 -1.785156 5.171875 -1.984375 5.171875 -2.234375 C 5.171875 -2.484375 5.070312 -2.675781 4.875 -2.8125 C 4.675781 -2.957031 4.40625 -3.03125 4.0625 -3.03125 Z M 2.5625 -3.03125 "/></g></g></g><g fill="rgb(7.058716%, 13.328552%, 61.569214%)" fill-opacity="1"><g transform="translate(51.383214, 36.823242)"><g><path d="M 0.648438 0 L 1.335938 0 C 1.550781 0 1.628906 -0.0742188 1.628906 -0.285156 L 1.628906 -1.394531 C 1.628906 -2.160156 1.546875 -2.511719 1.402344 -3.152344 L 1.457031 -3.152344 C 1.640625 -2.546875 1.757812 -2.226562 2.054688 -1.757812 L 3.105469 -0.136719 C 3.167969 -0.0390625 3.242188 0 3.382812 0 L 4.152344 0 C 4.363281 0 4.4375 -0.0742188 4.4375 -0.285156 L 4.4375 -4.546875 C 4.4375 -4.757812 4.363281 -4.835938 4.152344 -4.835938 L 3.457031 -4.835938 C 3.242188 -4.835938 3.171875 -4.757812 3.171875 -4.546875 L 3.171875 -3.425781 C 3.171875 -2.738281 3.261719 -2.402344 3.480469 -1.710938 L 3.425781 -1.710938 C 3.214844 -2.21875 3.152344 -2.484375 2.851562 -2.949219 L 1.734375 -4.699219 C 1.675781 -4.792969 1.601562 -4.835938 1.449219 -4.835938 L 0.648438 -4.835938 C 0.429688 -4.835938 0.359375 -4.757812 0.359375 -4.546875 L 0.359375 -0.285156 C 0.359375 -0.0742188 0.429688 0 0.648438 0 Z M 0.648438 0 "/></g></g></g><g fill="rgb(7.058716%, 13.328552%, 61.569214%)" fill-opacity="1"><g transform="translate(58.893444, 36.823242)"><g><path d="M 0.648438 0 L 3.5625 0 C 3.773438 0 3.847656 -0.0742188 3.847656 -0.285156 L 3.847656 -0.90625 C 3.847656 -1.125 3.773438 -1.191406 3.5625 -1.191406 L 1.703125 -1.191406 L 1.703125 -1.84375 L 3.140625 -1.84375 C 3.355469 -1.84375 3.433594 -1.921875 3.433594 -2.136719 L 3.433594 -2.742188 C 3.433594 -2.960938 3.355469 -3.035156 3.140625 -3.035156 L 1.703125 -3.035156 L 1.703125 -3.648438 L 3.5 -3.648438 C 3.71875 -3.648438 3.792969 -3.71875 3.792969 -3.933594 L 3.792969 -4.546875 C 3.792969 -4.757812 3.71875 -4.835938 3.5 -4.835938 L 0.648438 -4.835938 C 0.429688 -4.835938 0.359375 -4.757812 0.359375 -4.546875 L 0.359375 -0.285156 C 0.359375 -0.0742188 0.429688 0 0.648438 0 Z M 0.648438 0 "/></g></g></g><g fill="rgb(7.058716%, 13.328552%, 61.569214%)" fill-opacity="1"><g transform="translate(65.641074, 36.823242)"><g><path d="M 0.648438 0 L 1.417969 0 C 1.632812 0 1.703125 -0.0742188 1.703125 -0.285156 L 1.703125 -1.449219 L 2.539062 -1.449219 C 3.59375 -1.449219 4.28125 -2.0625 4.28125 -3.132812 C 4.28125 -4.214844 3.589844 -4.835938 2.527344 -4.835938 L 0.648438 -4.835938 C 0.429688 -4.835938 0.359375 -4.757812 0.359375 -4.546875 L 0.359375 -0.285156 C 0.359375 -0.0742188 0.429688 0 0.648438 0 Z M 1.703125 -2.640625 L 1.703125 -3.648438 L 2.375 -3.648438 C 2.703125 -3.648438 2.886719 -3.445312 2.886719 -3.144531 C 2.886719 -2.839844 2.695312 -2.640625 2.375 -2.640625 Z M 1.703125 -2.640625 "/></g></g></g><g fill="rgb(7.058716%, 13.328552%, 61.569214%)" fill-opacity="1"><g transform="translate(72.790431, 36.823242)"><g><path d="M 0.230469 0 L 0.945312 0 C 1.28125 0 1.375 -0.0742188 1.4375 -0.285156 L 1.59375 -0.777344 L 3.078125 -0.777344 L 3.226562 -0.285156 C 3.28125 -0.0742188 3.390625 0 3.738281 0 L 4.472656 0 C 4.675781 0 4.738281 -0.09375 4.671875 -0.277344 L 3.097656 -4.609375 C 3.03125 -4.785156 2.933594 -4.835938 2.742188 -4.835938 L 1.96875 -4.835938 C 1.777344 -4.835938 1.683594 -4.792969 1.613281 -4.597656 L 0.046875 -0.277344 C -0.0195312 -0.09375 0.0195312 0 0.230469 0 Z M 1.914062 -1.84375 L 2.164062 -2.648438 C 2.300781 -3.113281 2.292969 -3.601562 2.292969 -3.601562 L 2.363281 -3.601562 C 2.363281 -3.601562 2.375 -3.105469 2.511719 -2.640625 L 2.765625 -1.84375 Z M 1.914062 -1.84375 "/></g></g></g><g fill="rgb(7.058716%, 13.328552%, 61.569214%)" fill-opacity="1"><g transform="translate(80.218958, 36.823242)"><g><path d="M 0.648438 0 L 3.34375 0 C 3.554688 0 3.628906 -0.0742188 3.628906 -0.285156 L 3.628906 -0.90625 C 3.628906 -1.125 3.554688 -1.191406 3.34375 -1.191406 L 1.703125 -1.191406 L 1.703125 -4.546875 C 1.703125 -4.757812 1.632812 -4.835938 1.417969 -4.835938 L 0.648438 -4.835938 C 0.429688 -4.835938 0.359375 -4.757812 0.359375 -4.546875 L 0.359375 -0.285156 C 0.359375 -0.0742188 0.429688 0 0.648438 0 Z M 0.648438 0 "/></g></g></g></svg>